<svg width="125" height="32" viewBox="0 0 125 32" fill="none" xmlns="http://www.w3.org/2000/svg">
<path d="M0 28.8864V3.76666C0 2.32402 1.50641 1.37614 2.80699 2.00041L28.9734 14.5603C30.4552 15.2716 30.4552 17.3815 28.9734 18.0928L2.80698 30.6526C1.5064 31.2769 0 30.329 0 28.8864Z" fill="#80F5EE"/>
<mask id="mask0" mask-type="alpha" maskUnits="userSpaceOnUse" x="0" y="1" width="31" height="30">
<path d="M0 28.8864V3.76666C0 2.32402 1.50641 1.37614 2.80699 2.00041L28.9734 14.5603C30.4552 15.2716 30.4552 17.3815 28.9734 18.0928L2.80698 30.6526C1.5064 31.2769 0 30.329 0 28.8864Z" fill="#80F5EE"/>
</mask>
<g mask="url(#mask0)">
<rect x="3.91837" y="-1.90735e-06" width="22.2041" height="31.3469" rx="1.95918" fill="#262020"/>
<rect x="5.7187" y="1.77436" width="10.2019" height="1.1829" rx="0.591452" fill="#7ED6FC"/>
<rect x="6.91891" y="4.14016" width="10.2019" height="1.1829" rx="0.591452" fill="#D44B9D"/>
<rect x="5.7187" y="6.50597" width="7.80143" height="1.1829" rx="0.591452" fill="#7ED6FC"/>
<rect x="6.91891" y="8.87177" width="7.80143" height="1.1829" rx="0.591452" fill="#D44B9D"/>
<rect x="15.9206" y="8.87177" width="3.60066" height="1.1829" rx="0.591452" fill="#7ED6FC"/>
<rect x="5.7187" y="11.2376" width="3.60066" height="1.1829" rx="0.591452" fill="#7ED6FC"/>
<rect x="10.5196" y="11.2376" width="3.60066" height="1.1829" rx="0.591452" fill="#D44B9D"/>
<rect x="15.3205" y="11.2376" width="3.60066" height="1.1829" rx="0.591452" fill="#7ED6FC"/>
<rect x="5.11859" y="23.0666" width="7.80143" height="1.1829" rx="0.591452" fill="#80F5EE"/>
<rect x="6.31881" y="25.4324" width="7.80143" height="1.1829" rx="0.591452" fill="#F84183"/>
<rect x="15.3205" y="25.4324" width="3.60066" height="1.1829" rx="0.591452" fill="#7ED6FC"/>
<rect x="5.11859" y="27.7982" width="3.60066" height="1.1829" rx="0.591452" fill="#7ED6FC"/>
<rect x="9.91947" y="27.7982" width="3.60066" height="1.1829" rx="0.591452" fill="#D44B9D"/>
<rect x="14.7204" y="27.7982" width="3.60066" height="1.1829" rx="0.591452" fill="#7ED6FC"/>
<rect x="5.7187" y="13.6034" width="8.40154" height="1.1829" rx="0.591452" fill="#D44B9D"/>
<rect x="6.91891" y="15.9692" width="8.40154" height="1.1829" rx="0.591452" fill="#7ED6FC"/>
<rect x="5.11859" y="18.335" width="5.40099" height="1.1829" rx="0.591452" fill="#80F5EE"/>
<rect x="11.7198" y="18.335" width="10.2019" height="1.1829" rx="0.591452" fill="#F84183"/>
<rect x="5.11859" y="20.7008" width="4.20077" height="1.1829" rx="0.591452" fill="#F84183"/>
<rect x="10.5196" y="20.7008" width="4.20077" height="1.1829" rx="0.591452" fill="#F84183"/>
<rect x="15.9206" y="20.7008" width="4.20077" height="1.1829" rx="0.591452" fill="#80F5EE"/>
</g>
<path d="M3.91837 1.95918C3.91837 0.877157 4.79553 0 5.87756 0H24.1633C25.2453 0 26.1225 0.877157 26.1225 1.95918V17.1521H3.91837V1.95918Z" fill="#262020"/>
<rect x="5.71869" y="1.77436" width="10.2019" height="1.1829" rx="0.591452" fill="#80F5EE"/>
<rect x="6.91891" y="4.14016" width="10.2019" height="1.1829" rx="0.591452" fill="#F84183"/>
<rect x="5.71869" y="6.50597" width="7.80143" height="1.1829" rx="0.591452" fill="#80F5EE"/>
<rect x="6.91891" y="8.87177" width="7.80143" height="1.1829" rx="0.591452" fill="#F84183"/>
<rect x="15.9206" y="8.87177" width="3.60066" height="1.1829" rx="0.591452" fill="#80F5EE"/>
<rect x="5.71869" y="11.2376" width="3.60066" height="1.1829" rx="0.591452" fill="#80F5EE"/>
<rect x="10.5196" y="11.2376" width="3.60066" height="1.1829" rx="0.591452" fill="#F84183"/>
<rect x="15.3204" y="11.2376" width="3.60066" height="1.1829" rx="0.591452" fill="#80F5EE"/>
<rect x="5.71869" y="13.6034" width="8.40154" height="1.1829" rx="0.591452" fill="#F84183"/>
<rect x="6.91891" y="15.9692" width="8.40154" height="1.1829" rx="0.591452" fill="#80F5EE"/>
<path d="M46.0694 25.9592C45.0245 25.9592 43.8612 25.8939 42.5796 25.7633V7.88571C44.0653 7.61633 45.3714 7.48163 46.498 7.48163C49.1755 7.48163 51.1755 8.23674 52.498 9.74694C53.8204 11.249 54.4816 13.5796 54.4816 16.7388C54.4816 18.8939 54.1674 20.6531 53.5388 22.0163C52.9102 23.3714 51.9755 24.3673 50.7347 25.0041C49.502 25.6408 47.9469 25.9592 46.0694 25.9592ZM46.4367 24.3061C47.8163 24.3061 48.951 24.0571 49.8408 23.5592C50.7306 23.0612 51.4 22.2571 51.849 21.1469C52.298 20.0367 52.5225 18.5673 52.5225 16.7388C52.5225 14.9347 52.3061 13.4735 51.8735 12.3551C51.449 11.2367 50.8041 10.4204 49.9388 9.90612C49.0816 9.39184 47.9755 9.13469 46.6204 9.13469C45.9102 9.13469 45.1918 9.19184 44.4653 9.30612V24.2082C45.1184 24.2735 45.7755 24.3061 46.4367 24.3061ZM65.6144 19.8H58.3531C58.3776 20.9673 58.5286 21.8898 58.8062 22.5673C59.0837 23.2449 59.496 23.7306 60.0429 24.0245C60.5899 24.3102 61.3001 24.4531 62.1735 24.4531C62.9572 24.4531 63.9001 24.2898 65.0021 23.9633V25.5551C64.4552 25.7265 63.9409 25.849 63.4593 25.9225C62.9776 25.9959 62.4837 26.0327 61.9776 26.0327C60.7123 26.0327 59.6756 25.8082 58.8674 25.3592C58.0593 24.902 57.4511 24.1673 57.0429 23.1551C56.6429 22.1429 56.4429 20.8041 56.4429 19.1388C56.4429 16.7959 56.8593 15.0735 57.6919 13.9714C58.5246 12.8612 59.6837 12.3061 61.1695 12.3061C62.6144 12.3061 63.7164 12.8531 64.4756 13.9469C65.2348 15.0408 65.6144 16.7837 65.6144 19.1755V19.8ZM61.1572 13.702C60.2837 13.702 59.6021 14.0571 59.1123 14.7673C58.6307 15.4694 58.3776 16.702 58.3531 18.4653H63.8021C63.7858 17.2571 63.6674 16.302 63.447 15.6C63.2348 14.898 62.9368 14.4082 62.5531 14.1306C62.1776 13.8449 61.7123 13.702 61.1572 13.702ZM75.4814 12.5143H77.3917L73.1304 25.8H70.6692L66.408 12.5143H68.3794L71.9304 23.9878L75.4814 12.5143ZM81.9343 25.8V9.39184H76.6323V7.67755H89.1221V9.39184H83.82V25.8H81.9343ZM92.8302 12.3061C93.8587 12.3061 94.6996 12.4531 95.3526 12.7469C96.0138 13.0408 96.5118 13.5265 96.8465 14.2041C97.1812 14.8735 97.3485 15.7796 97.3485 16.9224V25.8H95.7934L95.6587 24.3429H95.5363C95.1689 24.898 94.7036 25.3184 94.1404 25.6041C93.5853 25.8816 92.9608 26.0204 92.2669 26.0204C91.5567 26.0204 90.9322 25.8776 90.3934 25.5918C89.8547 25.3061 89.4343 24.8939 89.1322 24.3551C88.8383 23.8082 88.6914 23.1592 88.6914 22.4082C88.6914 21.2163 89.0465 20.2939 89.7567 19.6408C90.4669 18.9796 91.5689 18.5796 93.0628 18.4408L95.524 18.1837V16.8367C95.524 16.0857 95.4138 15.498 95.1934 15.0735C94.9812 14.6408 94.6628 14.3388 94.2383 14.1673C93.8138 13.9878 93.2547 13.898 92.5608 13.898C92.0955 13.898 91.5894 13.9429 91.0424 14.0327C90.5036 14.1143 89.9771 14.2449 89.4628 14.4245V12.8327C89.9363 12.6694 90.4791 12.5429 91.0914 12.4531C91.7118 12.3551 92.2914 12.3061 92.8302 12.3061ZM92.7812 24.5143C93.2873 24.5143 93.7771 24.3878 94.2506 24.1347C94.7322 23.8816 95.1567 23.4653 95.524 22.8857V19.4939L93.1975 19.7265C92.3077 19.8163 91.6465 20.0653 91.2138 20.4735C90.7894 20.8816 90.5771 21.4571 90.5771 22.2C90.5771 22.9755 90.7649 23.5551 91.1404 23.9388C91.524 24.3225 92.071 24.5143 92.7812 24.5143ZM100.343 25.8V6.01225H102.205V25.8H100.343ZM113.033 25.8L108.869 19.7633H107.155V25.8H105.294V6.01225H107.155V18.2204H108.845L112.678 12.5143H114.71L110.425 18.9673L115.114 25.8H113.033ZM118.734 26.0327C117.665 26.0327 116.653 25.8653 115.698 25.5306V23.951C116.775 24.2939 117.779 24.4653 118.71 24.4653C119.632 24.4653 120.334 24.2735 120.816 23.8898C121.298 23.498 121.538 22.9429 121.538 22.2245C121.538 21.6122 121.391 21.1429 121.098 20.8163C120.804 20.4816 120.351 20.2286 119.738 20.0571L118.391 19.702C117.346 19.4163 116.587 18.9837 116.114 18.4041C115.649 17.8163 115.416 17.049 115.416 16.102C115.416 15.3592 115.595 14.702 115.955 14.1306C116.314 13.5592 116.84 13.1143 117.534 12.7959C118.236 12.4694 119.077 12.3061 120.057 12.3061C120.946 12.3061 121.808 12.4041 122.64 12.6V14.1918C122.2 14.0857 121.783 14.0082 121.391 13.9592C121 13.9102 120.579 13.8857 120.13 13.8857C119.134 13.8857 118.391 14.0898 117.902 14.498C117.412 14.9061 117.167 15.4327 117.167 16.0776C117.167 16.6327 117.306 17.0735 117.583 17.4C117.869 17.7184 118.31 17.9633 118.906 18.1347L120.253 18.502C121.346 18.7959 122.126 19.2367 122.591 19.8245C123.057 20.4122 123.289 21.1918 123.289 22.1633C123.289 22.9633 123.106 23.6571 122.738 24.2449C122.379 24.8245 121.857 25.2694 121.171 25.5796C120.493 25.8816 119.681 26.0327 118.734 26.0327Z" fill="white"/>
</svg>
