<svg width="222" height="57" viewBox="0 0 222 57" fill="none" xmlns="http://www.w3.org/2000/svg">
<path d="M0 51.1461V10.1477C0 7.79311 2.45864 6.24606 4.58134 7.26496L47.288 27.7642C49.7065 28.9251 49.7065 32.3687 47.288 33.5296L4.58133 54.0288C2.45863 55.0477 0 53.5007 0 51.1461Z" fill="#80F5EE"/>
<mask id="mask0" mask-type="alpha" maskUnits="userSpaceOnUse" x="0" y="6" width="50" height="49">
<path d="M0 51.1461V10.1477C0 7.79311 2.45864 6.24606 4.58134 7.26496L47.288 27.7642C49.7065 28.9251 49.7065 32.3687 47.288 33.5296L4.58133 54.0288C2.45863 55.0477 0 53.5007 0 51.1461Z" fill="#80F5EE"/>
</mask>
<g mask="url(#mask0)">
<rect x="6.39526" y="4" width="36.2397" height="51.1619" rx="3.19762" fill="#262020"/>
<rect x="9.33359" y="6.896" width="16.6507" height="1.93064" rx="0.96532" fill="#7ED6FC"/>
<rect x="11.2925" y="10.7573" width="16.6507" height="1.93064" rx="0.96532" fill="#D44B9D"/>
<rect x="9.33359" y="14.6185" width="12.7329" height="1.93064" rx="0.96532" fill="#7ED6FC"/>
<rect x="11.2925" y="18.4798" width="12.7329" height="1.93064" rx="0.96532" fill="#D44B9D"/>
<rect x="25.9843" y="18.4798" width="5.87671" height="1.93064" rx="0.96532" fill="#7ED6FC"/>
<rect x="9.33359" y="22.3411" width="5.87671" height="1.93064" rx="0.96532" fill="#7ED6FC"/>
<rect x="17.1692" y="22.3411" width="5.87671" height="1.93064" rx="0.96532" fill="#D44B9D"/>
<rect x="25.0048" y="22.3411" width="5.87671" height="1.93064" rx="0.96532" fill="#7ED6FC"/>
<rect x="25.0048" y="45.5088" width="5.87671" height="1.93064" rx="0.96532" fill="#7ED6FC"/>
<rect x="16.1898" y="49.3701" width="5.87671" height="1.93064" rx="0.96532" fill="#D44B9D"/>
<rect x="24.0254" y="49.3701" width="5.87671" height="1.93064" rx="0.96532" fill="#7ED6FC"/>
<rect x="9.33359" y="26.2024" width="13.7123" height="1.93064" rx="0.96532" fill="#D44B9D"/>
<rect x="11.2925" y="30.0637" width="13.7123" height="1.93064" rx="0.96532" fill="#7ED6FC"/>
<rect x="9.04462" y="42.1264" width="29" height="4" rx="2" fill="#80F5EE"/>
<rect x="9.04462" y="54.1264" width="15" height="4" rx="2" fill="#80F5EE"/>
<rect x="25.0446" y="49.1264" width="12" height="4" rx="2" fill="#F84183"/>
<rect x="9.04462" y="49.1264" width="10" height="4" rx="2" fill="#F84183"/>
<rect x="20.0446" y="48.1264" width="4" height="4" rx="2" fill="#F84183"/>
<rect x="34.0446" y="43.1264" width="6" height="4" rx="2" fill="#F84183"/>
<rect x="25.0446" y="48.1264" width="8" height="4" rx="2" fill="#80F5EE"/>
<rect x="30.0446" y="35.1264" width="8" height="4" rx="2" fill="#80F5EE"/>
</g>
<path d="M6.39526 7.19762C6.39526 5.43162 7.82689 4 9.59288 4H39.4373C41.2033 4 42.635 5.43162 42.635 7.19762V31.9943H6.39526V7.19762Z" fill="#262020"/>
<rect x="9.04462" y="21.1264" width="11" height="4" rx="2" fill="#80F5EE"/>
<rect x="18.0446" y="28.1264" width="13" height="4" rx="2" fill="#80F5EE"/>
<rect x="22.0446" y="21.1264" width="15" height="4" rx="2" fill="#F84183"/>
<rect x="9.04462" y="35.1264" width="10" height="4" rx="2" fill="#F84183"/>
<rect x="21.0446" y="35.1264" width="7" height="4" rx="2" fill="#F84183"/>
<rect x="9.04462" y="7.1264" width="29" height="4" rx="2" fill="#80F5EE"/>
<rect x="9.04462" y="14.1264" width="14" height="4" rx="2" fill="#F84183"/>
<rect x="9.04462" y="28.1264" width="7" height="4" rx="2" fill="#F84183"/>
<rect x="25.0446" y="14.1264" width="15" height="4" rx="2" fill="#80F5EE"/>
<rect x="33.0446" y="28.1264" width="7" height="4" rx="2" fill="#80F5EE"/>
<path d="M79.6025 46.291C77.6924 46.291 75.566 46.1716 73.2232 45.9328V13.2532C75.939 12.7607 78.3266 12.5145 80.3859 12.5145C85.2804 12.5145 88.9363 13.8948 91.3537 16.6554C93.7711 19.4011 94.9798 23.6614 94.9798 29.4363C94.9798 33.3758 94.4053 36.5915 93.2563 39.0835C92.1073 41.5606 90.3987 43.3811 88.1305 44.5451C85.8773 45.709 83.0346 46.291 79.6025 46.291ZM80.274 43.2692C82.7958 43.2692 84.87 42.8141 86.4965 41.9038C88.1231 40.9936 89.3467 39.5238 90.1674 37.4943C90.9881 35.4649 91.3985 32.7789 91.3985 29.4363C91.3985 26.1385 91.003 23.4674 90.2122 21.4231C89.4362 19.3787 88.2574 17.8865 86.6756 16.9464C85.1088 16.0063 83.0868 15.5363 80.6097 15.5363C79.3115 15.5363 77.9983 15.6407 76.6702 15.8496V43.0902C77.864 43.2095 79.0653 43.2692 80.274 43.2692ZM115.33 35.0322H102.057C102.102 37.166 102.378 38.8523 102.885 40.0908C103.392 41.3293 104.146 42.2172 105.146 42.7544C106.145 43.2767 107.444 43.5378 109.04 43.5378C110.473 43.5378 112.196 43.2394 114.211 42.6425V45.5523C113.211 45.8657 112.271 46.0895 111.391 46.2238C110.51 46.3581 109.607 46.4253 108.682 46.4253C106.369 46.4253 104.474 46.0149 102.997 45.1942C101.52 44.3586 100.408 43.0156 99.6618 41.1652C98.9306 39.3148 98.565 36.8676 98.565 33.8235C98.565 29.5408 99.326 26.3922 100.848 24.3777C102.37 22.3483 104.489 21.3336 107.205 21.3336C109.846 21.3336 111.861 22.3333 113.248 24.3329C114.636 26.3325 115.33 29.5184 115.33 33.8906V35.0322ZM107.183 23.8853C105.586 23.8853 104.34 24.5344 103.445 25.8326C102.564 27.1159 102.102 29.3692 102.057 32.5924H112.017C111.988 30.3839 111.771 28.638 111.368 27.3547C110.98 26.0714 110.436 25.176 109.734 24.6687C109.048 24.1464 108.197 23.8853 107.183 23.8853ZM133.367 21.7141H136.859L129.069 46H124.57L116.781 21.7141H120.385L126.876 42.6873L133.367 21.7141ZM145.163 46V16.0063H135.471V12.8726H158.302V16.0063H148.61V46H145.163ZM165.08 21.3336C166.96 21.3336 168.497 21.6022 169.691 22.1394C170.9 22.6766 171.81 23.5644 172.422 24.803C173.033 26.0266 173.339 27.683 173.339 29.7721V46H170.497L170.25 43.3364H170.027C169.355 44.3511 168.505 45.1196 167.475 45.6419C166.46 46.1492 165.319 46.4029 164.05 46.4029C162.752 46.4029 161.61 46.1418 160.626 45.6195C159.641 45.0972 158.872 44.3436 158.32 43.3588C157.783 42.359 157.514 41.1727 157.514 39.7998C157.514 37.6212 158.163 35.935 159.462 34.7412C160.76 33.5325 162.774 32.8013 165.505 32.5476L170.004 32.0776V29.6154C170.004 28.2425 169.803 27.1681 169.4 26.3922C169.012 25.6013 168.43 25.0492 167.654 24.7358C166.878 24.4075 165.856 24.2434 164.587 24.2434C163.737 24.2434 162.812 24.3255 161.812 24.4896C160.827 24.6388 159.865 24.8776 158.924 25.2059V22.296C159.79 21.9976 160.782 21.7663 161.901 21.6022C163.036 21.4231 164.095 21.3336 165.08 21.3336ZM164.99 43.6497C165.916 43.6497 166.811 43.4185 167.676 42.9559C168.557 42.4933 169.333 41.7322 170.004 40.6728V34.4726L165.751 34.8979C164.125 35.062 162.916 35.5171 162.125 36.2632C161.349 37.0094 160.961 38.0614 160.961 39.4193C160.961 40.8369 161.305 41.8964 161.991 42.5977C162.692 43.2991 163.692 43.6497 164.99 43.6497ZM178.814 46V9.82851H182.216V46H178.814ZM202.01 46L194.399 34.965H191.266V46H187.863V9.82851H191.266V32.1447H194.355L201.361 21.7141H205.076L197.242 33.5101L205.815 46H202.01ZM212.432 46.4253C210.477 46.4253 208.627 46.1194 206.881 45.5076V42.6201C208.851 43.2468 210.686 43.5602 212.387 43.5602C214.073 43.5602 215.357 43.2095 216.237 42.5082C217.117 41.7919 217.558 40.7772 217.558 39.4641C217.558 38.3449 217.289 37.4869 216.752 36.89C216.215 36.2782 215.386 35.8156 214.267 35.5022L211.805 34.8531C209.895 34.3308 208.507 33.5399 207.642 32.4805C206.791 31.4061 206.366 30.0034 206.366 28.2724C206.366 26.9145 206.694 25.7132 207.351 24.6687C208.007 23.6241 208.97 22.8109 210.238 22.2289C211.522 21.632 213.059 21.3336 214.849 21.3336C216.476 21.3336 218.05 21.5126 219.572 21.8708V24.7806C218.766 24.5866 218.005 24.4448 217.289 24.3553C216.573 24.2658 215.804 24.221 214.984 24.221C213.163 24.221 211.805 24.5941 210.91 25.3402C210.014 26.0863 209.567 27.0488 209.567 28.2276C209.567 29.2423 209.82 30.0481 210.328 30.645C210.85 31.227 211.656 31.6747 212.745 31.988L215.207 32.6595C217.207 33.1967 218.632 34.0025 219.483 35.0769C220.333 36.1513 220.758 37.5764 220.758 39.3521C220.758 40.8145 220.423 42.0829 219.751 43.1573C219.095 44.2168 218.14 45.0301 216.886 45.5971C215.648 46.1492 214.163 46.4253 212.432 46.4253Z" fill="white"/>
</svg>
